<svg xmlns="http://www.w3.org/2000/svg" xmlns:xlink="http://www.w3.org/1999/xlink" width="500" zoomAndPan="magnify" viewBox="0 0 375 374.999991" height="500" preserveAspectRatio="xMidYMid meet" version="1.0"><path fill="#ff3131" d="M 50.796875 306.390625 C 45.597656 306.390625 40.484375 304.003906 37.160156 299.574219 C 12.871094 266.933594 0 228.238281 0 187.5 C 0 137.386719 19.515625 90.339844 54.886719 54.886719 C 90.339844 19.515625 137.386719 0 187.5 0 C 223.296875 0 258.066406 10.140625 288.066406 29.234375 C 295.996094 34.261719 298.378906 44.828125 293.265625 52.753906 C 288.238281 60.683594 277.671875 63.066406 269.746094 57.953125 C 245.199219 42.359375 216.734375 34.089844 187.5 34.089844 C 102.871094 34.089844 34.089844 102.871094 34.089844 187.5 C 34.089844 220.824219 44.574219 252.527344 64.433594 279.121094 C 70.058594 286.703125 68.523438 297.359375 60.9375 302.984375 C 57.871094 305.285156 54.375 306.390625 50.796875 306.390625 Z M 50.796875 306.390625 " fill-opacity="1" fill-rule="nonzero"/><path fill="#ff3131" d="M 187.5 375 C 146.761719 375 107.984375 362.128906 75.339844 337.753906 C 67.839844 332.128906 66.222656 321.476562 71.933594 313.890625 C 77.558594 306.390625 88.210938 304.773438 95.796875 310.484375 C 122.386719 330.425781 154.089844 340.910156 187.5 340.910156 C 272.128906 340.910156 340.910156 272.128906 340.910156 187.5 C 340.910156 151.363281 328.125 116.335938 304.941406 88.808594 C 298.890625 81.5625 299.828125 70.824219 306.988281 64.773438 C 314.148438 58.722656 324.972656 59.660156 331.023438 66.816406 C 359.402344 100.484375 375 143.351562 375 187.5 C 375 237.613281 355.484375 284.660156 320.113281 320.113281 C 284.746094 355.566406 237.613281 375 187.5 375 Z M 187.5 375 " fill-opacity="1" fill-rule="nonzero"/><path fill="#ff3131" d="M 266.589844 216.734375 L 108.238281 216.734375 C 92.128906 216.734375 78.921875 203.523438 78.921875 187.414062 C 78.921875 171.308594 92.128906 158.097656 108.238281 158.097656 L 266.675781 158.097656 C 282.785156 158.097656 295.996094 171.308594 295.996094 187.414062 C 295.996094 203.523438 282.785156 216.734375 266.589844 216.734375 Z M 266.589844 216.734375 " fill-opacity="1" fill-rule="nonzero"/><path fill="#ff3131" d="M 216.734375 108.238281 L 216.734375 266.675781 C 216.734375 282.785156 203.523438 295.996094 187.414062 295.996094 C 171.308594 295.996094 158.097656 282.785156 158.097656 266.675781 L 158.097656 108.238281 C 158.097656 92.128906 171.308594 78.921875 187.414062 78.921875 C 203.523438 78.921875 216.734375 92.046875 216.734375 108.238281 Z M 216.734375 108.238281 " fill-opacity="1" fill-rule="nonzero"/></svg>