<svg xmlns="http://www.w3.org/2000/svg" xmlns:xlink="http://www.w3.org/1999/xlink" width="80" zoomAndPan="magnify" viewBox="0 0 60 60" height="80" preserveAspectRatio="xMidYMid meet" version="1.0"><defs><clipPath id="d2772b4234"><path d="M 2.476562 52 L 40 52 L 40 60 L 2.476562 60 Z M 2.476562 52 " clip-rule="nonzero"/></clipPath></defs><path fill="#455a64" d="M 49.039062 54.683594 C 47.984375 54.757812 46.964844 54.613281 45.96875 54.25 C 44.976562 53.886719 44.101562 53.335938 43.339844 52.601562 C 40.863281 49.9375 41.160156 45.46875 41.46875 40.738281 C 41.570312 39.207031 41.675781 37.65625 41.675781 36.167969 C 41.675781 22.59375 37.054688 22.59375 35.535156 22.59375 C 35.375 22.59375 35.214844 22.5625 35.066406 22.5 C 34.914062 22.4375 34.785156 22.347656 34.667969 22.230469 C 34.554688 22.117188 34.464844 21.980469 34.402344 21.832031 C 34.339844 21.679688 34.308594 21.523438 34.308594 21.359375 C 34.308594 21.195312 34.339844 21.039062 34.402344 20.886719 C 34.464844 20.734375 34.554688 20.601562 34.667969 20.484375 C 34.785156 20.371094 34.914062 20.28125 35.066406 20.21875 C 35.214844 20.15625 35.375 20.125 35.535156 20.125 C 44.128906 20.125 44.128906 32.199219 44.128906 36.167969 C 44.128906 37.710938 44.027344 39.3125 43.921875 40.898438 C 43.644531 45.082031 43.386719 49.03125 45.132812 50.910156 C 45.664062 51.394531 46.269531 51.75 46.949219 51.976562 C 47.628906 52.203125 48.328125 52.285156 49.039062 52.214844 C 49.539062 52.25 50.023438 52.175781 50.492188 51.992188 C 50.960938 51.804688 51.363281 51.527344 51.703125 51.15625 C 53.863281 48.636719 52.863281 41.929688 52.136719 37.03125 C 51.796875 35.113281 51.582031 33.179688 51.496094 31.230469 L 51.496094 23.828125 C 51.496094 23.414062 51.660156 23.085938 51.984375 22.839844 C 54.382812 21.046875 54.195312 19.628906 54.027344 18.496094 C 53.980469 18.21875 53.957031 17.941406 53.949219 17.660156 C 53.234375 16.375 52.386719 15.1875 51.410156 14.089844 C 50.433594 12.996094 49.347656 12.019531 48.15625 11.164062 C 46.96875 10.308594 45.699219 9.589844 44.351562 9.015625 C 43.003906 8.441406 41.609375 8.019531 40.171875 7.753906 C 40.011719 7.714844 39.867188 7.652344 39.734375 7.554688 C 39.601562 7.460938 39.492188 7.34375 39.40625 7.203125 C 39.320312 7.066406 39.261719 6.914062 39.234375 6.753906 C 39.207031 6.59375 39.214844 6.433594 39.25 6.273438 C 39.285156 6.113281 39.351562 5.964844 39.445312 5.832031 C 39.542969 5.699219 39.660156 5.589844 39.796875 5.503906 C 39.933594 5.414062 40.085938 5.359375 40.246094 5.332031 C 40.40625 5.304688 40.566406 5.308594 40.722656 5.347656 C 51.542969 7.847656 56.40625 15.875 56.40625 17.660156 C 56.414062 17.824219 56.429688 17.988281 56.460938 18.152344 C 56.582031 18.742188 56.613281 19.335938 56.5625 19.933594 C 56.507812 20.535156 56.371094 21.113281 56.148438 21.671875 C 55.925781 22.230469 55.625 22.746094 55.25 23.214844 C 54.878906 23.683594 54.441406 24.089844 53.949219 24.429688 L 53.949219 31.234375 C 54.042969 33.058594 54.246094 34.867188 54.5625 36.664062 C 55.40625 42.339844 56.457031 49.386719 53.5625 52.761719 C 52.992188 53.410156 52.308594 53.902344 51.519531 54.238281 C 50.726562 54.574219 49.898438 54.722656 49.039062 54.683594 Z M 49.039062 54.683594 " fill-opacity="1" fill-rule="nonzero"/><path fill="#455a64" d="M 52.722656 25.0625 C 52.382812 25.0625 52.09375 24.945312 51.851562 24.703125 C 45 17.8125 45.832031 14.203125 49.398438 10.617188 C 49.515625 10.503906 49.644531 10.417969 49.796875 10.359375 C 49.945312 10.296875 50.101562 10.269531 50.261719 10.269531 C 50.421875 10.269531 50.578125 10.304688 50.726562 10.367188 C 50.875 10.429688 51.003906 10.515625 51.117188 10.632812 C 51.234375 10.746094 51.320312 10.878906 51.382812 11.027344 C 51.445312 11.175781 51.476562 11.332031 51.476562 11.492188 C 51.480469 11.65625 51.449219 11.8125 51.390625 11.960938 C 51.332031 12.113281 51.246094 12.246094 51.132812 12.363281 C 49.054688 14.453125 47.09375 16.425781 53.589844 22.957031 C 53.765625 23.132812 53.878906 23.34375 53.925781 23.589844 C 53.972656 23.835938 53.953125 24.074219 53.855469 24.304688 C 53.761719 24.535156 53.609375 24.71875 53.402344 24.859375 C 53.195312 24.996094 52.96875 25.066406 52.71875 25.066406 Z M 52.722656 25.0625 " fill-opacity="1" fill-rule="nonzero"/><path fill="#f44336" d="M 30.625 0.378906 L 10.984375 0.378906 C 10.582031 0.378906 10.183594 0.421875 9.789062 0.5 C 9.390625 0.578125 9.007812 0.695312 8.636719 0.851562 C 8.261719 1.003906 7.910156 1.195312 7.574219 1.421875 C 7.238281 1.644531 6.929688 1.902344 6.644531 2.1875 C 6.359375 2.472656 6.105469 2.785156 5.882812 3.121094 C 5.65625 3.460938 5.46875 3.816406 5.3125 4.191406 C 5.160156 4.5625 5.042969 4.949219 4.964844 5.347656 C 4.886719 5.746094 4.847656 6.144531 4.847656 6.550781 L 4.847656 53.449219 C 4.847656 53.613281 4.878906 53.769531 4.941406 53.921875 C 5.003906 54.074219 5.089844 54.207031 5.207031 54.320312 C 5.320312 54.4375 5.453125 54.527344 5.605469 54.589844 C 5.753906 54.652344 5.910156 54.683594 6.074219 54.683594 L 35.535156 54.683594 C 35.699219 54.683594 35.855469 54.652344 36.007812 54.589844 C 36.15625 54.527344 36.289062 54.4375 36.402344 54.320312 C 36.519531 54.207031 36.609375 54.074219 36.671875 53.921875 C 36.734375 53.769531 36.765625 53.613281 36.765625 53.449219 L 36.765625 6.550781 C 36.765625 6.144531 36.722656 5.746094 36.644531 5.347656 C 36.566406 4.949219 36.449219 4.5625 36.296875 4.191406 C 36.140625 3.816406 35.953125 3.460938 35.730469 3.121094 C 35.503906 2.785156 35.25 2.472656 34.964844 2.1875 C 34.679688 1.902344 34.371094 1.644531 34.035156 1.421875 C 33.699219 1.195312 33.347656 1.003906 32.976562 0.851562 C 32.601562 0.695312 32.21875 0.578125 31.824219 0.5 C 31.429688 0.421875 31.027344 0.378906 30.625 0.378906 Z M 30.625 0.378906 " fill-opacity="1" fill-rule="nonzero"/><path fill="#cfd8dc" d="M 10.984375 5.316406 L 30.625 5.316406 C 30.789062 5.316406 30.945312 5.347656 31.09375 5.410156 C 31.246094 5.472656 31.378906 5.5625 31.492188 5.679688 C 31.609375 5.792969 31.699219 5.925781 31.761719 6.078125 C 31.820312 6.230469 31.851562 6.386719 31.851562 6.550781 L 31.851562 21.359375 C 31.851562 21.523438 31.820312 21.683594 31.761719 21.832031 C 31.699219 21.984375 31.609375 22.117188 31.492188 22.234375 C 31.378906 22.347656 31.246094 22.4375 31.09375 22.5 C 30.945312 22.5625 30.789062 22.59375 30.625 22.59375 L 10.984375 22.59375 C 10.820312 22.59375 10.664062 22.5625 10.515625 22.5 C 10.363281 22.4375 10.230469 22.347656 10.117188 22.234375 C 10 22.117188 9.914062 21.984375 9.851562 21.832031 C 9.789062 21.683594 9.757812 21.523438 9.757812 21.359375 L 9.757812 6.550781 C 9.757812 6.386719 9.789062 6.230469 9.851562 6.078125 C 9.914062 5.925781 10 5.792969 10.117188 5.679688 C 10.230469 5.5625 10.363281 5.472656 10.515625 5.410156 C 10.664062 5.347656 10.820312 5.316406 10.984375 5.316406 Z M 10.984375 5.316406 " fill-opacity="1" fill-rule="nonzero"/><g clip-path="url(#d2772b4234)"><path fill="#455a64" d="M 35.535156 52.214844 L 6.074219 52.214844 C 5.585938 52.214844 5.117188 52.308594 4.664062 52.496094 C 4.214844 52.683594 3.816406 52.953125 3.46875 53.300781 C 3.125 53.644531 2.859375 54.046875 2.671875 54.5 C 2.484375 54.953125 2.390625 55.425781 2.390625 55.917969 L 2.390625 58.386719 C 2.390625 58.550781 2.421875 58.707031 2.484375 58.859375 C 2.546875 59.007812 2.636719 59.140625 2.75 59.257812 C 2.867188 59.375 3 59.464844 3.148438 59.527344 C 3.300781 59.589844 3.457031 59.621094 3.617188 59.621094 L 37.992188 59.621094 C 38.152344 59.621094 38.3125 59.589844 38.460938 59.527344 C 38.613281 59.464844 38.746094 59.375 38.859375 59.257812 C 38.972656 59.140625 39.0625 59.007812 39.125 58.859375 C 39.1875 58.707031 39.21875 58.550781 39.21875 58.386719 L 39.21875 55.917969 C 39.21875 55.425781 39.125 54.953125 38.9375 54.5 C 38.75 54.046875 38.484375 53.644531 38.140625 53.300781 C 37.792969 52.953125 37.398438 52.683594 36.945312 52.496094 C 36.496094 52.308594 36.023438 52.214844 35.535156 52.214844 Z M 35.535156 52.214844 " fill-opacity="1" fill-rule="nonzero"/><path stroke-linecap="round" transform="matrix(2.455157, 0, 0, 2.468295, 0.0198429, 0.380466)" fill="none" stroke-linejoin="round" d="M 1.46522 23.500539 L 1.46522 22.500354 C 1.46522 22.367418 1.490676 22.23923 1.54159 22.117372 C 1.592503 21.995514 1.665691 21.886317 1.759562 21.792945 C 1.853433 21.699574 1.960033 21.626775 2.082543 21.576133 C 2.205053 21.525491 2.333927 21.50017 2.465983 21.50017 L 14.465598 21.50017 C 14.599245 21.50017 14.726528 21.525491 14.849038 21.576133 C 14.971548 21.626775 15.079739 21.699574 15.17361 21.792945 C 15.267481 21.886317 15.339078 21.995514 15.389991 22.117372 C 15.440905 22.23923 15.466361 22.367418 15.466361 22.500354 L 15.466361 23.500539 Z M 1.46522 23.500539 " stroke="#000000" stroke-width="1" stroke-opacity="1" stroke-miterlimit="4"/></g><path stroke-linecap="round" transform="matrix(2.455157, 0, 0, 2.468295, 0.0198429, 0.380466)" fill="none" stroke-linejoin="round" d="M 2.465983 21.50017 L 2.465983 2.499829 C 2.465983 2.368476 2.478711 2.238705 2.504168 2.110517 C 2.529625 1.980746 2.56781 1.855723 2.618723 1.733865 C 2.668045 1.61359 2.730096 1.498062 2.803283 1.388865 C 2.876471 1.279667 2.959205 1.178383 3.051485 1.085011 C 3.145357 0.993222 3.245592 0.909346 3.355374 0.836548 C 3.463565 0.76375 3.57971 0.702029 3.700629 0.65297 C 3.821548 0.602327 3.94724 0.564346 4.076114 0.539025 C 4.204989 0.512121 4.335454 0.49946 4.465919 0.49946 L 12.465662 0.49946 C 12.597718 0.49946 12.726592 0.512121 12.855466 0.539025 C 12.984341 0.564346 13.110033 0.602327 13.230952 0.65297 C 13.353462 0.702029 13.468016 0.76375 13.577798 0.836548 C 13.685989 0.909346 13.787815 0.993222 13.880095 1.085011 C 13.972376 1.178383 14.056701 1.279667 14.128298 1.388865 C 14.201485 1.498062 14.263536 1.61359 14.314449 1.733865 C 14.363771 1.855723 14.401956 1.980746 14.427413 2.110517 C 14.452869 2.238705 14.465598 2.368476 14.465598 2.499829 L 14.465598 21.50017 " stroke="#000000" stroke-width="1" stroke-opacity="1" stroke-miterlimit="4"/><path stroke-linecap="round" transform="matrix(2.455157, 0, 0, 2.468295, 0.0198429, 0.380466)" fill="none" stroke-linejoin="round" d="M 4.465919 2.499829 L 12.465662 2.499829 L 12.465662 8.499354 L 4.465919 8.499354 Z M 4.465919 2.499829 " stroke="#000000" stroke-width="1" stroke-opacity="1" stroke-miterlimit="4"/><path stroke-linecap="round" transform="matrix(2.455157, 0, 0, 2.468295, 0.0198429, 0.380466)" fill="none" stroke-linejoin="round" d="M 14.465598 8.499354 C 16.882386 8.499354 17.466297 11.333737 17.466297 14.500461 C 17.466297 17.667184 16.341432 21.50017 19.965819 21.50017 C 23.590205 21.50017 21.466168 14.87553 21.466168 12.500092 L 21.466168 9.499538 C 21.676186 9.376098 21.860746 9.222588 22.01985 9.037428 C 22.178954 8.853849 22.303055 8.648115 22.393744 8.421808 C 22.484433 8.1955 22.536938 7.959697 22.548075 7.715981 C 22.560803 7.473848 22.533755 7.23488 22.465341 7.00066 C 22.465341 6.541714 20.632464 3.457284 16.465533 2.499829 " stroke="#000000" stroke-width="1" stroke-opacity="1" stroke-miterlimit="4"/><path stroke-linecap="round" transform="matrix(2.455157, 0, 0, 2.468295, 0.0198429, 0.380466)" fill="none" stroke-linejoin="round" d="M 20.465405 4.500198 C 19.402591 5.563686 18.653212 6.687311 21.466168 9.499538 " stroke="#000000" stroke-width="1" stroke-opacity="1" stroke-miterlimit="4"/></svg>