<svg xmlns="http://www.w3.org/2000/svg" xmlns:xlink="http://www.w3.org/1999/xlink" width="1024" zoomAndPan="magnify" viewBox="0 0 768 576" height="768" preserveAspectRatio="xMidYMid meet" version="1.0"><defs><clipPath id="fca18bef4e"><path d="M 203 532 L 727.070312 532 L 727.070312 540.835938 L 203 540.835938 Z M 203 532 " clip-rule="nonzero"/></clipPath><clipPath id="e26d34d8eb"><path d="M 40.820312 523 L 225 523 L 225 540.835938 L 40.820312 540.835938 Z M 40.820312 523 " clip-rule="nonzero"/></clipPath></defs><path fill="#475055" d="M 708.328125 534.554688 L 695.65625 534.554688 L 667.546875 406.167969 L 680.21875 406.167969 L 708.328125 534.554688 " fill-opacity="1" fill-rule="nonzero"/><path fill="#475055" d="M 567.777344 534.554688 L 580.449219 534.554688 L 608.558594 406.167969 L 595.890625 406.167969 L 567.777344 534.554688 " fill-opacity="1" fill-rule="nonzero"/><path fill="#475055" d="M 584.769531 428.980469 L 691.34375 428.980469 L 691.34375 358.050781 L 584.769531 358.050781 Z M 584.769531 428.980469 " fill-opacity="1" fill-rule="nonzero"/><path fill="#3a4349" d="M 691.34375 428.980469 L 660.539062 428.980469 C 656.277344 424.886719 652.007812 420.785156 647.960938 416.90625 L 676.0625 416.90625 L 676.0625 396.707031 L 691.34375 413.914062 L 691.34375 428.980469 M 656.511719 428.980469 L 584.769531 428.980469 L 584.769531 416.90625 L 643.925781 416.90625 C 647.910156 420.71875 652.175781 424.820312 656.511719 428.980469 M 691.34375 409.710938 L 676.0625 392.5 L 676.0625 358.050781 L 691.34375 358.050781 L 691.34375 409.710938 " fill-opacity="1" fill-rule="nonzero"/><path fill="#62676b" d="M 617.503906 371.867188 L 584.769531 371.867188 L 584.769531 358.050781 L 625.082031 358.050781 L 625.082031 362.84375 C 621.832031 365.121094 619.195312 368.234375 617.503906 371.867188 M 651.597656 363.257812 C 651.40625 363.117188 651.214844 362.976562 651.023438 362.84375 L 651.023438 358.050781 L 651.597656 358.050781 L 651.597656 363.257812 " fill-opacity="1" fill-rule="nonzero"/><path fill="#f2942b" d="M 625.082031 380.347656 L 651.023438 380.347656 L 651.023438 293.085938 L 625.082031 293.085938 Z M 625.082031 380.347656 " fill-opacity="1" fill-rule="nonzero"/><path fill="#f4a64c" d="M 625.082031 362.84375 L 625.082031 293.085938 L 630.574219 293.085938 L 630.574219 360.03125 C 628.601562 360.714844 626.761719 361.675781 625.082031 362.84375 " fill-opacity="1" fill-rule="nonzero"/><path fill="#b57633" d="M 651.023438 362.84375 C 648.378906 360.996094 645.316406 359.699219 642.011719 359.113281 L 642.011719 293.085938 L 651.023438 293.085938 L 651.023438 362.84375 " fill-opacity="1" fill-rule="nonzero"/><path fill="#242929" d="M 655.554688 336.71875 L 620.550781 336.71875 L 620.550781 309.042969 L 655.554688 309.042969 L 655.554688 336.71875 " fill-opacity="1" fill-rule="nonzero"/><path fill="#242929" d="M 634.492188 316.714844 L 641.613281 316.714844 L 641.613281 153.992188 L 634.492188 153.992188 Z M 634.492188 316.714844 " fill-opacity="1" fill-rule="nonzero"/><path fill="#242929" d="M 238.417969 451.449219 L 243.660156 451.449219 L 243.660156 273.976562 L 238.417969 273.976562 Z M 238.417969 451.449219 " fill-opacity="1" fill-rule="nonzero"/><path fill="#475055" d="M 244.992188 536.386719 L 280.3125 536.386719 L 280.3125 451.449219 L 244.992188 451.449219 Z M 244.992188 536.386719 " fill-opacity="1" fill-rule="nonzero"/><path fill="#62676b" d="M 244.992188 536.386719 L 251.527344 536.386719 L 251.527344 454.460938 L 244.992188 454.460938 Z M 244.992188 536.386719 " fill-opacity="1" fill-rule="nonzero"/><path fill="#3a4349" d="M 270.246094 536.386719 L 280.3125 536.386719 L 280.3125 454.460938 L 270.246094 454.460938 Z M 270.246094 536.386719 " fill-opacity="1" fill-rule="nonzero"/><path fill="#475055" d="M 666.847656 162.277344 L 321.652344 252.425781 L 310.96875 211.492188 L 656.167969 121.339844 L 666.847656 162.277344 " fill-opacity="1" fill-rule="nonzero"/><path fill="#ffffff" d="M 326.691406 207.382812 L 414.023438 184.574219 L 326.691406 207.382812 M 447.558594 175.820312 L 620.386719 130.683594 L 447.558594 175.820312 " fill-opacity="1" fill-rule="nonzero"/><path fill="#62676b" d="M 331.328125 213.675781 C 329.988281 211.402344 328.4375 209.304688 326.691406 207.382812 L 414.023438 184.574219 C 412.191406 187.136719 410.785156 190.03125 409.929688 193.152344 L 331.328125 213.675781 M 455.300781 181.304688 C 453.078125 179.050781 450.457031 177.1875 447.558594 175.820312 L 620.386719 130.683594 L 622.226562 137.710938 L 455.300781 181.304688 " fill-opacity="1" fill-rule="nonzero"/><path fill="#b8bbc2" d="M 648.070312 123.460938 L 648.0625 123.453125 L 656.167969 121.339844 L 648.070312 123.460938 " fill-opacity="1" fill-rule="nonzero"/><path fill="#3a4349" d="M 332.925781 249.480469 C 334.53125 246.101562 335.648438 242.480469 336.210938 238.722656 L 415.519531 218.007812 C 418.21875 221.152344 421.632812 223.664062 425.507812 225.304688 L 332.925781 249.480469 M 457.421875 216.96875 C 459.945312 213.730469 461.75 209.898438 462.585938 205.71875 L 656.328125 155.117188 L 648.070312 123.460938 L 656.167969 121.339844 L 666.847656 162.277344 L 641.613281 168.867188 L 634.492188 170.730469 L 457.421875 216.96875 " fill-opacity="1" fill-rule="nonzero"/><path fill="#242929" d="M 362.78125 244.835938 L 355.039062 246.859375 L 343.082031 201.054688 L 350.835938 199.03125 L 362.78125 244.835938 " fill-opacity="1" fill-rule="nonzero"/><path fill="#242929" d="M 557.714844 193.925781 L 549.96875 195.953125 L 538.015625 150.140625 L 545.769531 148.121094 L 557.714844 193.925781 " fill-opacity="1" fill-rule="nonzero"/><path fill="#242929" d="M 569.683594 156.839844 C 570.402344 159.640625 568.726562 162.503906 565.933594 163.234375 C 563.136719 163.960938 560.28125 162.285156 559.546875 159.484375 C 558.816406 156.695312 560.496094 153.828125 563.292969 153.101562 C 566.089844 152.371094 568.945312 154.042969 569.683594 156.839844 " fill-opacity="1" fill-rule="nonzero"/><path fill="#242929" d="M 600.257812 148.859375 C 600.984375 151.65625 599.316406 154.515625 596.519531 155.242188 C 593.722656 155.972656 590.859375 154.300781 590.128906 151.503906 C 589.398438 148.703125 591.078125 145.847656 593.875 145.109375 C 596.671875 144.382812 599.527344 146.058594 600.257812 148.859375 " fill-opacity="1" fill-rule="nonzero"/><path fill="#242929" d="M 369.308594 209.171875 C 370.046875 211.96875 368.367188 214.828125 365.570312 215.554688 C 362.773438 216.285156 359.917969 214.605469 359.179688 211.808594 C 358.453125 209.015625 360.128906 206.152344 362.925781 205.421875 C 365.722656 204.691406 368.582031 206.371094 369.308594 209.171875 " fill-opacity="1" fill-rule="nonzero"/><path fill="#242929" d="M 399.890625 201.179688 C 400.628906 203.980469 398.949219 206.835938 396.152344 207.574219 C 393.363281 208.300781 390.5 206.621094 389.769531 203.824219 C 389.042969 201.027344 390.714844 198.167969 393.511719 197.441406 C 396.308594 196.710938 399.164062 198.382812 399.890625 201.179688 " fill-opacity="1" fill-rule="nonzero"/><path fill="#f2942b" d="M 641.453125 178.257812 L 625.253906 182.484375 L 611.488281 129.742188 L 627.695312 125.507812 L 641.453125 178.257812 " fill-opacity="1" fill-rule="nonzero"/><path fill="#f2942b" d="M 299.054688 248.871094 L 242.078125 263.753906 C 239.964844 259.527344 238.117188 254.738281 236.675781 249.214844 C 235.238281 243.695312 234.503906 238.613281 234.28125 233.898438 L 291.265625 219.015625 C 296.816406 221.085938 301.3125 225.738281 302.925781 231.917969 C 304.53125 238.089844 302.890625 244.347656 299.054688 248.871094 M 302.386719 279.578125 C 292.523438 294.511719 298.628906 319.175781 298.628906 319.175781 C 298.628906 319.175781 257.355469 325.132812 245.335938 279.070312 L 306.730469 263.046875 C 308.320312 269.152344 306.472656 275.351562 302.386719 279.578125 M 256.539062 157.886719 C 256.539062 157.886719 263.273438 182.394531 279.171875 190.589844 C 284.804688 192.292969 289.441406 196.792969 291.03125 202.902344 L 229.652344 218.929688 C 217.632812 172.867188 256.539062 157.886719 256.539062 157.886719 M 309.410156 196.488281 C 274.601562 178.550781 259.875 124.902344 259.875 124.902344 C 259.875 124.902344 174.691406 157.695312 201 258.53125 C 227.304688 359.367188 317.640625 346.335938 317.640625 346.335938 C 317.640625 346.335938 304.289062 292.328125 325.882812 259.652344 C 334.824219 250.378906 338.867188 236.816406 335.378906 223.441406 C 331.890625 210.070312 321.738281 200.207031 309.410156 196.488281 " fill-opacity="1" fill-rule="nonzero"/><path fill="#b8bbc2" d="M 317.640625 346.335938 C 317.640625 346.328125 317.484375 345.714844 317.242188 344.582031 C 317.25 344.582031 317.25 344.582031 317.25 344.582031 C 317.492188 345.707031 317.640625 346.328125 317.640625 346.335938 M 260.382812 126.617188 C 260.042969 125.507812 259.875 124.902344 259.875 124.902344 C 259.875 124.902344 260.042969 125.515625 260.382812 126.617188 " fill-opacity="1" fill-rule="nonzero"/><path fill="#b57633" d="M 307.539062 346.878906 C 293.5625 346.878906 267.375 344.164062 243.660156 326.648438 C 241.894531 325.355469 240.148438 323.96875 238.417969 322.503906 C 222.917969 309.328125 209 289.195312 201 258.53125 C 197.480469 245.042969 195.957031 232.765625 195.957031 221.628906 C 195.964844 149.507812 259.875 124.902344 259.875 124.902344 C 259.875 124.902344 260.042969 125.507812 260.382812 126.617188 C 239.664062 137.996094 188.597656 175.066406 209.773438 256.242188 C 230.683594 336.363281 291.988281 344.589844 316.308594 344.589844 C 316.625 344.589844 316.941406 344.589844 317.242188 344.582031 C 317.484375 345.714844 317.640625 346.328125 317.640625 346.335938 C 317.640625 346.335938 313.828125 346.878906 307.539062 346.878906 " fill-opacity="1" fill-rule="nonzero"/><path fill="#b8bbc2" d="M 291.03125 202.902344 C 289.441406 196.792969 284.804688 192.292969 279.171875 190.589844 C 279.160156 190.582031 279.144531 190.582031 279.136719 190.578125 C 279.144531 190.582031 279.160156 190.582031 279.171875 190.589844 C 284.804688 192.292969 289.441406 196.792969 291.03125 202.902344 M 267.167969 179.773438 C 267.167969 179.773438 267.160156 179.765625 267.160156 179.757812 C 267.160156 179.765625 267.167969 179.773438 267.167969 179.773438 M 267.148438 179.742188 C 267.140625 179.738281 267.132812 179.730469 267.132812 179.722656 C 267.132812 179.730469 267.140625 179.738281 267.148438 179.742188 M 267.125 179.707031 C 263.121094 174.257812 260.332031 168.253906 258.628906 163.925781 C 260.339844 168.253906 263.121094 174.257812 267.125 179.707031 " fill-opacity="1" fill-rule="nonzero"/><path fill="#b57633" d="M 291.03125 202.902344 C 289.441406 196.792969 284.804688 192.292969 279.171875 190.589844 C 279.160156 190.582031 279.144531 190.582031 279.136719 190.578125 C 274.332031 188.085938 270.363281 184.109375 267.167969 179.773438 C 267.167969 179.773438 267.160156 179.765625 267.160156 179.757812 C 267.152344 179.757812 267.152344 179.75 267.148438 179.742188 C 267.140625 179.738281 267.132812 179.730469 267.132812 179.722656 C 267.125 179.714844 267.125 179.714844 267.125 179.707031 C 263.121094 174.257812 260.339844 168.253906 258.628906 163.925781 C 258.035156 162.410156 257.570312 161.097656 257.230469 160.089844 C 261.808594 156.960938 265.320312 155.597656 265.320312 155.597656 C 265.320312 155.597656 272.054688 180.105469 287.945312 188.300781 C 293.578125 190 298.214844 194.5 299.8125 200.613281 L 291.03125 202.902344 " fill-opacity="1" fill-rule="nonzero"/><path fill="#b57633" d="M 299.054688 248.871094 C 301.894531 245.519531 303.535156 241.203125 303.535156 236.675781 C 303.535156 235.105469 303.335938 233.507812 302.925781 231.917969 C 301.3125 225.738281 296.816406 221.085938 291.265625 219.015625 L 300.039062 216.726562 C 305.597656 218.796875 310.085938 223.449219 311.691406 229.628906 C 313.3125 235.800781 311.664062 242.058594 307.828125 246.582031 L 299.054688 248.871094 " fill-opacity="1" fill-rule="nonzero"/><path fill="#b8bbc2" d="M 298.148438 316.921875 C 296.925781 310.507812 294.320312 291.789062 302.386719 279.578125 C 294.328125 291.789062 296.933594 310.5 298.148438 316.921875 " fill-opacity="1" fill-rule="nonzero"/><path fill="#b57633" d="M 302.824219 317.128906 C 301.488281 317.128906 299.90625 317.078125 298.148438 316.921875 C 296.933594 310.5 294.328125 291.789062 302.386719 279.578125 C 305.488281 276.375 307.296875 272.039062 307.296875 267.464844 C 307.296875 266.007812 307.113281 264.519531 306.730469 263.046875 L 315.503906 260.75 C 317.09375 266.859375 315.246094 273.054688 311.167969 277.289062 C 301.300781 292.214844 307.402344 316.886719 307.402344 316.886719 C 307.402344 316.886719 305.671875 317.136719 302.824219 317.128906 " fill-opacity="1" fill-rule="nonzero"/><path fill="#242929" d="M 463.117188 200.339844 C 463.117188 215.304688 450.996094 227.433594 436.046875 227.433594 C 421.089844 227.433594 408.96875 215.304688 408.96875 200.339844 C 408.96875 185.382812 421.089844 173.257812 436.046875 173.257812 C 450.996094 173.257812 463.117188 185.382812 463.117188 200.339844 " fill-opacity="1" fill-rule="nonzero"/><path fill="#1e2324" d="M 436.046875 215.796875 C 427.515625 215.796875 420.597656 208.875 420.597656 200.339844 C 420.597656 191.804688 427.515625 184.890625 436.046875 184.890625 C 444.570312 184.890625 451.488281 191.804688 451.488281 200.339844 C 451.488281 208.875 444.570312 215.796875 436.046875 215.796875 " fill-opacity="1" fill-rule="nonzero"/><path fill="#363d3f" d="M 418.25 224.324219 C 418.25 235.136719 426.21875 243.898438 436.046875 243.898438 C 445.871094 243.898438 453.835938 235.136719 453.835938 224.324219 L 418.25 224.324219 " fill-opacity="1" fill-rule="nonzero"/><path fill="#475055" d="M 456.425781 227.433594 L 452.96875 227.433594 L 486.105469 469.390625 L 489.5625 469.390625 L 456.425781 227.433594 " fill-opacity="1" fill-rule="nonzero"/><path fill="#475055" d="M 415.65625 227.433594 L 419.117188 227.433594 L 385.972656 469.390625 L 382.515625 469.390625 L 415.65625 227.433594 " fill-opacity="1" fill-rule="nonzero"/><path fill="#475055" d="M 460.460938 227.433594 L 411.625 227.433594 L 411.625 219.753906 L 460.460938 219.753906 L 460.460938 227.433594 " fill-opacity="1" fill-rule="nonzero"/><path fill="#475055" d="M 504.761719 463.105469 L 367.320312 463.105469 L 367.320312 533.132812 L 504.761719 533.132812 L 504.761719 463.105469 " fill-opacity="1" fill-rule="nonzero"/><path fill="#1e2321" d="M 422.339844 291.648438 L 422.339844 288.453125 L 449.742188 288.453125 L 449.742188 291.648438 L 422.339844 291.648438 " fill-opacity="1" fill-rule="nonzero"/><path fill="#1e2321" d="M 422.339844 304.476562 L 422.339844 301.28125 L 449.742188 301.28125 L 449.742188 304.476562 L 422.339844 304.476562 " fill-opacity="1" fill-rule="nonzero"/><path fill="#1e2321" d="M 422.339844 317.296875 L 422.339844 314.109375 L 449.742188 314.109375 L 449.742188 317.296875 L 422.339844 317.296875 " fill-opacity="1" fill-rule="nonzero"/><path fill="#1e2321" d="M 422.339844 330.125 L 422.339844 326.929688 L 449.742188 326.929688 L 449.742188 330.125 L 422.339844 330.125 " fill-opacity="1" fill-rule="nonzero"/><path fill="#1e2321" d="M 422.339844 342.953125 L 422.339844 339.765625 L 449.742188 339.765625 L 449.742188 342.953125 L 422.339844 342.953125 " fill-opacity="1" fill-rule="nonzero"/><path fill="#1e2321" d="M 422.339844 355.78125 L 422.339844 352.59375 L 449.742188 352.59375 L 449.742188 355.78125 L 422.339844 355.78125 " fill-opacity="1" fill-rule="nonzero"/><path fill="#1e2321" d="M 422.339844 368.609375 L 422.339844 365.414062 L 449.742188 365.414062 L 449.742188 368.609375 L 422.339844 368.609375 " fill-opacity="1" fill-rule="nonzero"/><path fill="#1e2321" d="M 422.339844 381.4375 L 422.339844 378.242188 L 449.742188 378.242188 L 449.742188 381.4375 L 422.339844 381.4375 " fill-opacity="1" fill-rule="nonzero"/><path fill="#1e2321" d="M 422.339844 394.269531 L 422.339844 391.070312 L 449.742188 391.070312 L 449.742188 394.269531 L 422.339844 394.269531 " fill-opacity="1" fill-rule="nonzero"/><path fill="#1e2321" d="M 423.945312 399.460938 L 422.289062 399.460938 L 422.289062 273.976562 L 423.945312 273.976562 L 423.945312 399.460938 " fill-opacity="1" fill-rule="nonzero"/><path fill="#1e2321" d="M 449.796875 399.460938 L 448.148438 399.460938 L 448.148438 273.976562 L 449.796875 273.976562 L 449.796875 399.460938 " fill-opacity="1" fill-rule="nonzero"/><path fill="#1e2321" d="M 422.339844 367.859375 L 422.339844 364.664062 L 449.742188 364.664062 L 449.742188 367.859375 L 422.339844 367.859375 " fill-opacity="1" fill-rule="nonzero"/><path fill="#1e2321" d="M 422.339844 380.6875 L 422.339844 377.492188 L 449.742188 377.492188 L 449.742188 380.6875 L 422.339844 380.6875 " fill-opacity="1" fill-rule="nonzero"/><path fill="#1e2321" d="M 422.339844 393.515625 L 422.339844 390.320312 L 449.742188 390.320312 L 449.742188 393.515625 L 422.339844 393.515625 " fill-opacity="1" fill-rule="nonzero"/><path fill="#1e2321" d="M 422.339844 406.34375 L 422.339844 403.148438 L 449.742188 403.148438 L 449.742188 406.34375 L 422.339844 406.34375 " fill-opacity="1" fill-rule="nonzero"/><path fill="#1e2321" d="M 422.339844 419.164062 L 422.339844 415.976562 L 449.742188 415.976562 L 449.742188 419.164062 L 422.339844 419.164062 " fill-opacity="1" fill-rule="nonzero"/><path fill="#1e2321" d="M 422.339844 432 L 422.339844 428.804688 L 449.742188 428.804688 L 449.742188 432 L 422.339844 432 " fill-opacity="1" fill-rule="nonzero"/><path fill="#1e2321" d="M 422.339844 444.828125 L 422.339844 441.632812 L 449.742188 441.632812 L 449.742188 444.828125 L 422.339844 444.828125 " fill-opacity="1" fill-rule="nonzero"/><path fill="#1e2321" d="M 422.339844 457.652344 L 422.339844 454.460938 L 449.742188 454.460938 L 449.742188 457.652344 L 422.339844 457.652344 " fill-opacity="1" fill-rule="nonzero"/><path fill="#1e2321" d="M 422.339844 470.480469 L 422.339844 467.28125 L 449.742188 467.28125 L 449.742188 470.480469 L 422.339844 470.480469 " fill-opacity="1" fill-rule="nonzero"/><path fill="#1e2321" d="M 423.945312 533.132812 L 422.289062 533.132812 L 422.289062 350.195312 L 423.945312 350.195312 L 423.945312 533.132812 " fill-opacity="1" fill-rule="nonzero"/><path fill="#1e2321" d="M 449.796875 533.132812 L 448.148438 533.132812 L 448.148438 350.195312 L 449.796875 350.195312 L 449.796875 533.132812 " fill-opacity="1" fill-rule="nonzero"/><path fill="#475055" d="M 491.402344 261.964844 L 380.671875 261.964844 L 380.671875 274.550781 L 491.402344 274.550781 L 491.402344 261.964844 " fill-opacity="1" fill-rule="nonzero"/><path fill="#1e2321" d="M 489.394531 261.964844 L 489.394531 252.433594 L 382.691406 252.433594 L 382.691406 261.964844 L 384.167969 261.964844 L 384.167969 253.90625 L 395.871094 253.90625 L 395.871094 261.964844 L 397.335938 261.964844 L 397.335938 253.90625 L 409.039062 253.90625 L 409.039062 261.964844 L 410.511719 261.964844 L 410.511719 253.90625 L 422.136719 253.90625 L 422.136719 261.964844 L 423.6875 261.964844 L 423.6875 253.90625 L 435.308594 253.90625 L 435.308594 261.964844 L 436.789062 261.964844 L 436.789062 253.90625 L 448.484375 253.90625 L 448.484375 261.964844 L 449.964844 261.964844 L 449.964844 253.90625 L 461.585938 253.90625 L 461.585938 261.964844 L 463.140625 261.964844 L 463.140625 253.90625 L 474.761719 253.90625 L 474.761719 261.964844 L 476.234375 261.964844 L 476.234375 253.90625 L 487.929688 253.90625 L 487.929688 261.964844 L 489.394531 261.964844 " fill-opacity="1" fill-rule="nonzero"/><g clip-path="url(#fca18bef4e)"><path fill="#242929" d="M 727.070312 540.585938 L 203.332031 540.585938 L 203.332031 532.191406 L 727.070312 532.191406 L 727.070312 540.585938 " fill-opacity="1" fill-rule="nonzero"/></g><path fill="#f2942b" d="M 235.792969 454.460938 L 289.515625 454.460938 L 289.515625 436.78125 L 235.792969 436.78125 Z M 235.792969 454.460938 " fill-opacity="1" fill-rule="nonzero"/><path fill="#fad09c" d="M 235.792969 440.277344 L 275.28125 440.277344 L 275.28125 436.78125 L 235.792969 436.78125 Z M 235.792969 440.277344 " fill-opacity="1" fill-rule="nonzero"/><path fill="#b57633" d="M 289.515625 454.460938 L 235.792969 454.460938 L 235.792969 450.46875 L 283.664062 450.46875 L 283.664062 436.78125 L 289.515625 436.78125 L 289.515625 454.460938 " fill-opacity="1" fill-rule="nonzero"/><path fill="#242929" d="M 660.714844 381.4375 C 660.714844 393.957031 650.574219 404.113281 638.050781 404.113281 C 625.539062 404.113281 615.390625 393.957031 615.390625 381.4375 C 615.390625 368.921875 625.539062 358.765625 638.050781 358.765625 C 650.574219 358.765625 660.714844 368.921875 660.714844 381.4375 " fill-opacity="1" fill-rule="nonzero"/><path fill="#1e2324" d="M 638.050781 394.269531 C 630.972656 394.269531 625.230469 388.523438 625.230469 381.4375 C 625.230469 374.355469 630.972656 368.609375 638.050781 368.609375 C 645.132812 368.609375 650.867188 374.355469 650.867188 381.4375 C 650.867188 388.523438 645.132812 394.269531 638.050781 394.269531 " fill-opacity="1" fill-rule="nonzero"/><path fill="#242929" d="M 687.949219 459.203125 L 686.96875 458.261719 C 664.894531 437.023438 622.78125 396.550781 621.359375 395.363281 L 623 393.105469 C 623.804688 393.640625 667.882812 436.03125 687.925781 455.308594 L 709.382812 434.234375 L 650.550781 367.964844 L 652.632812 366.113281 L 713.230469 434.363281 L 687.949219 459.203125 " fill-opacity="1" fill-rule="nonzero"/><path fill="#242929" d="M 715.125 444.46875 C 715.125 453.019531 708.199219 459.957031 699.652344 459.957031 C 691.097656 459.957031 684.171875 453.019531 684.171875 444.46875 C 684.171875 435.910156 691.097656 428.980469 699.652344 428.980469 C 708.199219 428.980469 715.125 435.910156 715.125 444.46875 " fill-opacity="1" fill-rule="nonzero"/><path fill="#1e2324" d="M 699.652344 453.230469 C 694.816406 453.230469 690.894531 449.308594 690.894531 444.46875 C 690.894531 439.628906 694.816406 435.707031 699.652344 435.707031 C 704.488281 435.707031 708.410156 439.628906 708.410156 444.46875 C 708.410156 449.308594 704.488281 453.230469 699.652344 453.230469 " fill-opacity="1" fill-rule="nonzero"/><path fill="#f2942b" d="M 715.882812 532.191406 L 683.421875 532.191406 L 683.421875 457.261719 L 715.882812 457.261719 L 715.882812 532.191406 " fill-opacity="1" fill-rule="nonzero"/><path fill="#a12525" d="M 134.804688 124.054688 C 134.804688 124.054688 155.222656 124.59375 162.613281 108.335938 C 167.324219 97.972656 164.300781 98.839844 160.332031 99.710938 C 158.074219 100.203125 155.503906 100.699219 153.890625 99.128906 C 149.425781 94.792969 167.300781 74.539062 165.007812 69.128906 C 164.050781 66.859375 160.839844 67.027344 157.277344 67.210938 C 152.324219 67.457031 146.691406 67.699219 145.433594 61.402344 C 143.261719 50.5625 143.125 39.324219 151.117188 38.234375 C 142.660156 35.390625 125.996094 46.167969 135.75 68.863281 C 134.886719 72.648438 121.058594 78.464844 124.308594 58.355469 C 115.582031 62.007812 113.46875 85.378906 124.707031 82.132812 C 128.34375 86.625 112.878906 95.808594 115.507812 76.585938 C 110.972656 77.75 107.25 89.644531 113.46875 98.039062 C 122.617188 108.070312 99.328125 121.074219 134.804688 124.054688 " fill-opacity="1" fill-rule="nonzero"/><path fill="#ec6124" d="M 132.523438 124.042969 C 132.523438 124.042969 113.601562 125.417969 112.105469 109.84375 C 110.605469 94.269531 115.632812 87.53125 108.46875 84.628906 C 111.222656 82.289062 123.515625 81.527344 123.292969 95.835938 C 123.292969 95.835938 122.382812 87.75 128.710938 82.648438 C 135.042969 77.539062 129.683594 67.898438 127.996094 67.339844 C 126.304688 66.761719 135.269531 65.351562 137.242188 74.140625 C 139.230469 82.929688 144.898438 60.527344 137.242188 56.5625 C 176.074219 74.140625 154.730469 124.070312 132.523438 124.042969 " fill-opacity="1" fill-rule="nonzero"/><path fill="#f2942b" d="M 128.234375 123.445312 C 124.625 121.691406 119.085938 105.710938 128.351562 99.734375 C 137.609375 93.746094 126.613281 86.765625 126.03125 86.890625 C 125.457031 87.015625 137.148438 86.019531 135.753906 98.230469 C 134.363281 110.441406 143.050781 96.859375 141.078125 94.738281 C 143.511719 94.871094 150.183594 134.109375 128.234375 123.445312 " fill-opacity="1" fill-rule="nonzero"/><path fill="#f7d246" d="M 131.175781 125.277344 C 130.574219 125.542969 123.398438 112.597656 133.613281 104.210938 C 137.265625 112.6875 136.449219 119.292969 131.175781 125.277344 " fill-opacity="1" fill-rule="nonzero"/><path fill="#363d3f" d="M 108.957031 161.789062 C 108.957031 176.246094 119.613281 187.96875 132.761719 187.96875 C 145.90625 187.96875 156.554688 176.246094 156.554688 161.789062 L 108.957031 161.789062 " fill-opacity="1" fill-rule="nonzero"/><path fill="#475055" d="M 123.347656 523.773438 L 142.167969 523.773438 L 142.167969 122.257812 L 123.347656 122.257812 Z M 123.347656 523.773438 " fill-opacity="1" fill-rule="nonzero"/><path fill="#3a4349" d="M 142.167969 523.773438 L 132.761719 523.773438 L 132.761719 475.890625 L 142.167969 482.160156 L 142.167969 523.773438 M 142.167969 472.152344 L 140.269531 470.882812 L 142.167969 469.625 L 142.167969 472.152344 M 132.761719 465.882812 L 132.761719 385.628906 L 142.167969 391.894531 L 142.167969 459.617188 L 132.761719 465.882812 M 142.167969 383.546875 L 139.023438 381.453125 L 142.167969 379.355469 L 142.167969 383.546875 M 132.761719 377.277344 L 132.761719 306.898438 L 142.167969 313.167969 L 142.167969 371.011719 L 132.761719 377.277344 M 142.167969 306.621094 L 137.667969 303.621094 L 142.167969 300.632812 L 142.167969 306.621094 M 132.761719 300.351562 L 132.761719 243.191406 L 142.167969 249.460938 L 142.167969 294.085938 L 132.761719 300.351562 M 142.167969 244.011719 L 136.84375 240.46875 L 142.167969 236.925781 L 142.167969 244.011719 M 132.761719 237.742188 L 132.761719 192.425781 L 142.167969 198.691406 L 142.167969 231.476562 L 132.761719 237.742188 M 142.167969 194.421875 L 135.953125 190.289062 L 142.167969 186.15625 L 142.167969 194.421875 M 132.761719 188.152344 L 132.761719 122.257812 L 142.167969 122.257812 L 142.167969 181.894531 L 132.761719 188.152344 " fill-opacity="1" fill-rule="nonzero"/><path fill="#475055" d="M 191.472656 426.765625 L 65.597656 510.621094 L 65.597656 520.628906 L 191.472656 436.773438 L 191.472656 426.765625 " fill-opacity="1" fill-rule="nonzero"/><path fill="#3a4349" d="M 65.597656 520.628906 L 65.597656 514.582031 L 128.21875 472.863281 L 132.753906 475.890625 L 123.347656 482.160156 L 65.597656 520.628906 M 140.269531 470.882812 L 135.726562 467.863281 L 191.472656 430.726562 L 191.472656 436.773438 L 140.269531 470.882812 " fill-opacity="1" fill-rule="nonzero"/><path fill="#475055" d="M 74.039062 426.765625 L 199.917969 510.621094 L 199.917969 520.628906 L 74.039062 436.773438 L 74.039062 426.765625 " fill-opacity="1" fill-rule="nonzero"/><path fill="#3a4349" d="M 199.917969 520.628906 L 142.167969 482.160156 L 132.761719 475.890625 L 132.753906 475.890625 L 128.21875 472.863281 L 74.039062 436.773438 L 74.039062 430.726562 L 199.917969 514.582031 L 199.917969 520.628906 " fill-opacity="1" fill-rule="nonzero"/><path fill="#475055" d="M 181.757812 344.632812 L 76.703125 414.613281 L 76.703125 422.964844 L 181.757812 352.984375 L 181.757812 344.632812 " fill-opacity="1" fill-rule="nonzero"/><path fill="#3a4349" d="M 76.703125 422.964844 L 76.703125 417.921875 L 128.96875 383.105469 L 132.753906 385.621094 L 123.347656 391.894531 L 76.703125 422.964844 M 139.023438 381.453125 L 135.234375 378.929688 L 181.757812 347.933594 L 181.757812 352.984375 L 139.023438 381.453125 " fill-opacity="1" fill-rule="nonzero"/><path fill="#475055" d="M 83.746094 344.632812 L 188.800781 414.613281 L 188.800781 422.964844 L 83.746094 352.984375 L 83.746094 344.632812 " fill-opacity="1" fill-rule="nonzero"/><path fill="#3a4349" d="M 188.800781 422.964844 L 142.167969 391.894531 L 132.761719 385.628906 L 132.753906 385.621094 L 128.96875 383.105469 L 83.746094 352.984375 L 83.746094 347.933594 L 188.800781 417.921875 L 188.800781 422.964844 " fill-opacity="1" fill-rule="nonzero"/><path fill="#475055" d="M 171.175781 274.761719 L 88.816406 329.617188 L 88.816406 336.164062 L 171.175781 281.300781 L 171.175781 274.761719 " fill-opacity="1" fill-rule="nonzero"/><path fill="#3a4349" d="M 88.816406 336.164062 L 88.816406 332.210938 L 129.785156 304.917969 L 132.753906 306.898438 L 123.347656 313.167969 L 88.816406 336.164062 M 137.667969 303.621094 L 134.703125 301.648438 L 171.175781 277.355469 L 171.175781 281.300781 L 137.667969 303.621094 " fill-opacity="1" fill-rule="nonzero"/><path fill="#475055" d="M 94.339844 274.761719 L 176.695312 329.617188 L 176.695312 336.164062 L 94.339844 281.300781 L 94.339844 274.761719 " fill-opacity="1" fill-rule="nonzero"/><path fill="#3a4349" d="M 176.695312 336.164062 L 142.167969 313.167969 L 132.761719 306.898438 L 132.753906 306.898438 L 129.785156 304.917969 L 94.339844 281.300781 L 94.339844 277.355469 L 176.695312 332.210938 L 176.695312 336.164062 " fill-opacity="1" fill-rule="nonzero"/><path fill="#475055" d="M 164.726562 216.445312 L 96.199219 262.097656 L 96.199219 267.546875 L 164.726562 221.894531 L 164.726562 216.445312 " fill-opacity="1" fill-rule="nonzero"/><path fill="#3a4349" d="M 96.199219 267.546875 L 96.199219 264.261719 L 130.285156 241.550781 L 132.753906 243.191406 L 123.347656 249.460938 L 96.199219 267.546875 M 136.84375 240.46875 L 134.378906 238.820312 L 164.726562 218.605469 L 164.726562 221.894531 L 136.84375 240.46875 " fill-opacity="1" fill-rule="nonzero"/><path fill="#475055" d="M 100.785156 216.445312 L 169.320312 262.097656 L 169.320312 267.546875 L 100.785156 221.894531 L 100.785156 216.445312 " fill-opacity="1" fill-rule="nonzero"/><path fill="#3a4349" d="M 169.320312 267.546875 L 142.167969 249.460938 L 132.761719 243.191406 L 132.753906 243.191406 L 130.285156 241.550781 L 100.785156 221.894531 L 100.785156 218.605469 L 169.320312 264.261719 L 169.320312 267.546875 " fill-opacity="1" fill-rule="nonzero"/><path fill="#475055" d="M 157.792969 171.480469 L 104.128906 207.226562 L 104.128906 211.492188 L 157.792969 175.746094 L 157.792969 171.480469 " fill-opacity="1" fill-rule="nonzero"/><path fill="#3a4349" d="M 104.128906 211.492188 L 104.128906 208.921875 L 130.824219 191.136719 L 132.753906 192.425781 L 123.347656 198.691406 L 104.128906 211.492188 M 135.953125 190.289062 L 134.027344 189 L 157.792969 173.175781 L 157.792969 175.746094 L 135.953125 190.289062 " fill-opacity="1" fill-rule="nonzero"/><path fill="#475055" d="M 107.726562 171.480469 L 161.382812 207.226562 L 161.382812 211.492188 L 107.726562 175.746094 L 107.726562 171.480469 " fill-opacity="1" fill-rule="nonzero"/><path fill="#3a4349" d="M 161.382812 211.492188 L 142.167969 198.691406 L 132.761719 192.425781 L 132.753906 192.425781 L 130.824219 191.136719 L 107.726562 175.746094 L 107.726562 173.175781 L 161.382812 208.921875 L 161.382812 211.492188 " fill-opacity="1" fill-rule="nonzero"/><path fill="#475055" d="M 160.03125 165.945312 L 155.402344 165.945312 L 199.734375 523.773438 L 204.355469 523.773438 L 160.03125 165.945312 " fill-opacity="1" fill-rule="nonzero"/><path fill="#475055" d="M 105.488281 165.945312 L 110.113281 165.945312 L 65.78125 523.773438 L 61.15625 523.773438 L 105.488281 165.945312 " fill-opacity="1" fill-rule="nonzero"/><path fill="#475055" d="M 165.417969 165.945312 L 100.09375 165.945312 L 100.09375 155.664062 L 165.417969 155.664062 L 165.417969 165.945312 " fill-opacity="1" fill-rule="nonzero"/><g clip-path="url(#e26d34d8eb)"><path fill="#242929" d="M 224.683594 523.773438 L 40.828125 523.773438 L 40.828125 540.585938 L 224.683594 540.585938 L 224.683594 523.773438 " fill-opacity="1" fill-rule="nonzero"/></g></svg>