<svg xmlns="http://www.w3.org/2000/svg" xmlns:xlink="http://www.w3.org/1999/xlink" width="128" zoomAndPan="magnify" viewBox="0 0 96 95.999999" height="128" preserveAspectRatio="xMidYMid meet" version="1.0"><defs><clipPath id="019fa8bc4b"><path d="M 33.535156 26.25 L 62.785156 26.25 L 62.785156 56 L 33.535156 56 Z M 33.535156 26.25 " clip-rule="nonzero"/></clipPath><clipPath id="bbf05bc07b"><path d="M 62.464844 39.445312 L 91.714844 39.445312 L 91.714844 69.445312 L 62.464844 69.445312 Z M 62.464844 39.445312 " clip-rule="nonzero"/></clipPath><clipPath id="12ca14a0bd"><path d="M 4.609375 39.445312 L 33.859375 39.445312 L 33.859375 69.445312 L 4.609375 69.445312 Z M 4.609375 39.445312 " clip-rule="nonzero"/></clipPath></defs><g clip-path="url(#019fa8bc4b)"><path fill="#ffde59" d="M 41.867188 45.511719 L 41.847656 45.496094 L 37.613281 42.890625 L 36.273438 41.972656 C 35.402344 41.347656 34.960938 40.796875 34.945312 40.316406 C 35.226562 39.863281 35.921875 39.433594 37.039062 39.027344 C 38.289062 38.542969 40.429688 37.941406 43.457031 37.230469 C 43.695312 37.167969 43.925781 37.035156 44.152344 36.832031 C 44.359375 36.609375 44.503906 36.371094 44.574219 36.125 C 45.429688 32.929688 46.128906 30.691406 46.671875 29.410156 C 47.144531 28.25 47.597656 27.601562 48.023438 27.464844 L 47.914062 27.46875 C 48.199219 27.550781 48.449219 27.75 48.664062 28.070312 C 48.867188 28.316406 49.148438 28.78125 49.503906 29.464844 C 50.109375 30.625 50.988281 32.796875 52.128906 35.972656 C 52.222656 36.214844 52.378906 36.4375 52.597656 36.644531 C 52.828125 36.828125 53.050781 36.945312 53.269531 36.988281 C 56.03125 37.484375 58.019531 37.933594 59.234375 38.335938 C 60.234375 38.640625 60.898438 39.027344 61.230469 39.496094 C 61.269531 39.933594 60.980469 40.445312 60.363281 41.035156 C 59.621094 41.78125 58.191406 42.875 56.078125 44.3125 C 55.863281 44.5 55.726562 44.753906 55.671875 45.066406 C 55.636719 45.371094 55.667969 45.632812 55.765625 45.847656 C 57.027344 48.644531 57.832031 50.675781 58.1875 51.941406 C 58.503906 53.128906 58.582031 53.875 58.414062 54.179688 C 58.367188 54.304688 58.28125 54.375 58.152344 54.390625 C 58.003906 54.429688 57.800781 54.433594 57.550781 54.402344 C 57.242188 54.386719 56.695312 54.246094 55.90625 53.976562 C 54.828125 53.621094 52.769531 52.660156 49.730469 51.085938 C 49.542969 50.996094 49.3125 50.945312 49.039062 50.9375 C 48.761719 50.949219 48.527344 51.003906 48.335938 51.097656 C 45.195312 52.746094 43.109375 53.746094 42.082031 54.105469 C 41.496094 54.335938 40.921875 54.503906 40.355469 54.621094 L 39.847656 54.679688 C 39.636719 54.675781 39.503906 54.648438 39.445312 54.597656 L 39.472656 54.621094 C 39.191406 54.234375 39.207031 53.496094 39.523438 52.40625 L 40.042969 50.75 C 41.261719 47.554688 41.890625 45.828125 41.929688 45.566406 C 39.015625 50.300781 37.820312 53.40625 38.351562 54.890625 C 38.765625 55.796875 39.710938 56.042969 41.1875 55.625 C 43.183594 55.03125 45.789062 53.820312 48.996094 51.992188 C 52.746094 53.988281 55.292969 55.132812 56.644531 55.417969 C 58.222656 55.804688 59.183594 55.511719 59.535156 54.546875 C 59.824219 53.941406 59.699219 52.769531 59.152344 51.039062 C 58.792969 49.917969 58.164062 48.339844 57.261719 46.3125 C 56.882812 45.382812 56.664062 45.035156 56.613281 45.269531 C 56.59375 45.324219 56.648438 45.316406 56.773438 45.242188 L 59.34375 43.425781 C 60.324219 42.671875 60.984375 42.109375 61.320312 41.734375 C 62.296875 40.703125 62.636719 39.828125 62.335938 39.113281 C 61.835938 37.722656 58.835938 36.652344 53.34375 35.902344 C 51.492188 30.546875 50.078125 27.511719 49.097656 26.804688 C 48.660156 26.4375 48.214844 26.28125 47.753906 26.339844 C 47.230469 26.4375 46.746094 26.832031 46.300781 27.523438 C 45.386719 29.011719 44.433594 31.859375 43.445312 36.066406 C 37.210938 37.386719 34.035156 38.683594 33.921875 39.960938 C 33.664062 40.835938 34.226562 41.730469 35.605469 42.640625 C 37.828125 43.996094 39.914062 44.953125 41.867188 45.511719 " fill-opacity="1" fill-rule="nonzero"/></g><g clip-path="url(#bbf05bc07b)"><path fill="#ffde59" d="M 70.792969 58.707031 L 70.773438 58.691406 L 66.542969 56.085938 L 65.199219 55.167969 C 64.332031 54.542969 63.886719 53.992188 63.875 53.511719 C 64.152344 53.058594 64.851562 52.628906 65.964844 52.222656 C 67.21875 51.738281 69.359375 51.136719 72.386719 50.425781 C 72.621094 50.363281 72.851562 50.230469 73.078125 50.027344 C 73.289062 49.804688 73.429688 49.566406 73.503906 49.320312 C 74.355469 46.125 75.054688 43.886719 75.597656 42.605469 C 76.070312 41.445312 76.523438 40.796875 76.949219 40.660156 L 76.839844 40.664062 C 77.128906 40.746094 77.378906 40.945312 77.59375 41.265625 C 77.796875 41.511719 78.074219 41.976562 78.429688 42.660156 C 79.039062 43.824219 79.914062 45.992188 81.058594 49.167969 C 81.152344 49.410156 81.308594 49.632812 81.523438 49.839844 C 81.753906 50.023438 81.980469 50.140625 82.195312 50.183594 C 84.960938 50.679688 86.949219 51.128906 88.160156 51.53125 C 89.160156 51.835938 89.828125 52.222656 90.15625 52.691406 C 90.195312 53.128906 89.90625 53.640625 89.289062 54.230469 C 88.546875 54.976562 87.121094 56.070312 85.003906 57.507812 C 84.789062 57.695312 84.652344 57.949219 84.597656 58.261719 C 84.5625 58.566406 84.59375 58.828125 84.695312 59.042969 C 85.953125 61.839844 86.761719 63.871094 87.113281 65.136719 C 87.433594 66.324219 87.507812 67.070312 87.339844 67.375 C 87.296875 67.5 87.207031 67.570312 87.082031 67.585938 C 86.929688 67.625 86.730469 67.628906 86.476562 67.597656 C 86.171875 67.582031 85.625 67.441406 84.835938 67.171875 C 83.757812 66.816406 81.695312 65.855469 78.65625 64.28125 C 78.46875 64.191406 78.238281 64.140625 77.964844 64.132812 C 77.6875 64.144531 77.453125 64.199219 77.261719 64.292969 C 74.121094 65.941406 72.039062 66.941406 71.011719 67.300781 C 70.425781 67.53125 69.847656 67.703125 69.285156 67.816406 L 68.777344 67.875 C 68.566406 67.871094 68.429688 67.84375 68.371094 67.792969 L 68.398438 67.816406 C 68.117188 67.429688 68.136719 66.691406 68.449219 65.601562 L 68.972656 63.945312 C 70.191406 60.75 70.820312 59.023438 70.859375 58.761719 C 67.941406 63.496094 66.75 66.601562 67.277344 68.085938 C 67.691406 68.992188 68.636719 69.238281 70.113281 68.820312 C 72.113281 68.226562 74.714844 67.015625 77.921875 65.1875 C 81.671875 67.1875 84.222656 68.328125 85.574219 68.613281 C 87.148438 69 88.109375 68.707031 88.460938 67.742188 C 88.753906 67.136719 88.625 65.964844 88.082031 64.234375 C 87.722656 63.113281 87.089844 61.535156 86.191406 59.507812 C 85.808594 58.578125 85.59375 58.230469 85.539062 58.464844 C 85.519531 58.519531 85.574219 58.511719 85.703125 58.4375 L 88.269531 56.621094 C 89.253906 55.867188 89.910156 55.304688 90.246094 54.929688 C 91.222656 53.898438 91.5625 53.023438 91.265625 52.308594 C 90.761719 50.917969 87.765625 49.847656 82.269531 49.097656 C 80.417969 43.742188 79.003906 40.707031 78.023438 40 C 77.589844 39.632812 77.140625 39.476562 76.679688 39.535156 C 76.15625 39.632812 75.671875 40.027344 75.230469 40.71875 C 74.3125 42.207031 73.363281 45.054688 72.371094 49.261719 C 66.136719 50.582031 62.964844 51.878906 62.847656 53.15625 C 62.59375 54.03125 63.152344 54.925781 64.53125 55.835938 C 66.753906 57.191406 68.839844 58.148438 70.792969 58.707031 " fill-opacity="1" fill-rule="nonzero"/></g><g clip-path="url(#12ca14a0bd)"><path fill="#ffde59" d="M 12.941406 58.707031 L 12.917969 58.691406 L 8.6875 56.085938 L 7.34375 55.167969 C 6.476562 54.542969 6.035156 53.992188 6.019531 53.511719 C 6.296875 53.058594 6.996094 52.628906 8.113281 52.222656 C 9.363281 51.738281 11.503906 51.136719 14.53125 50.425781 C 14.765625 50.363281 15 50.230469 15.226562 50.027344 C 15.433594 49.804688 15.574219 49.566406 15.648438 49.320312 C 16.5 46.125 17.199219 43.886719 17.742188 42.605469 C 18.21875 41.445312 18.667969 40.796875 19.097656 40.660156 L 18.984375 40.664062 C 19.273438 40.746094 19.523438 40.945312 19.738281 41.265625 C 19.941406 41.511719 20.222656 41.976562 20.578125 42.660156 C 21.183594 43.824219 22.058594 45.992188 23.203125 49.167969 C 23.296875 49.410156 23.453125 49.632812 23.667969 49.839844 C 23.898438 50.023438 24.125 50.140625 24.339844 50.183594 C 27.105469 50.679688 29.09375 51.128906 30.304688 51.53125 C 31.304688 51.835938 31.972656 52.222656 32.300781 52.691406 C 32.34375 53.128906 32.054688 53.640625 31.433594 54.230469 C 30.691406 54.976562 29.265625 56.070312 27.148438 57.507812 C 26.933594 57.695312 26.800781 57.949219 26.742188 58.261719 C 26.707031 58.566406 26.738281 58.828125 26.839844 59.042969 C 28.097656 61.839844 28.90625 63.871094 29.261719 65.136719 C 29.578125 66.324219 29.652344 67.070312 29.484375 67.375 C 29.441406 67.5 29.355469 67.570312 29.226562 67.585938 C 29.078125 67.625 28.875 67.628906 28.621094 67.597656 C 28.316406 67.582031 27.769531 67.441406 26.980469 67.171875 C 25.902344 66.816406 23.84375 65.855469 20.800781 64.28125 C 20.617188 64.191406 20.386719 64.140625 20.109375 64.132812 C 19.835938 64.144531 19.601562 64.199219 19.40625 64.292969 C 16.265625 65.941406 14.183594 66.941406 13.15625 67.300781 C 12.570312 67.53125 11.996094 67.703125 11.429688 67.816406 L 10.921875 67.875 C 10.710938 67.871094 10.578125 67.84375 10.515625 67.792969 L 10.542969 67.816406 C 10.261719 67.429688 10.28125 66.691406 10.59375 65.601562 L 11.117188 63.945312 C 12.335938 60.75 12.964844 59.023438 13.003906 58.761719 C 10.085938 63.496094 8.894531 66.601562 9.421875 68.085938 C 9.835938 68.992188 10.78125 69.238281 12.257812 68.820312 C 14.257812 68.226562 16.863281 67.015625 20.070312 65.1875 C 23.816406 67.1875 26.367188 68.328125 27.71875 68.613281 C 29.292969 69 30.257812 68.707031 30.605469 67.742188 C 30.898438 67.136719 30.769531 65.964844 30.226562 64.234375 C 29.867188 63.113281 29.234375 61.535156 28.335938 59.507812 C 27.953125 58.578125 27.738281 58.230469 27.683594 58.464844 C 27.664062 58.519531 27.71875 58.511719 27.847656 58.4375 L 30.414062 56.621094 C 31.398438 55.867188 32.058594 55.304688 32.390625 54.929688 C 33.371094 53.898438 33.707031 53.023438 33.410156 52.308594 C 32.90625 50.917969 29.910156 49.847656 24.417969 49.097656 C 22.566406 43.742188 21.148438 40.707031 20.167969 40 C 19.734375 39.632812 19.285156 39.476562 18.828125 39.535156 C 18.300781 39.632812 17.816406 40.027344 17.375 40.71875 C 16.460938 42.207031 15.507812 45.054688 14.519531 49.261719 C 8.28125 50.582031 5.109375 51.878906 4.996094 53.15625 C 4.738281 54.03125 5.296875 54.925781 6.675781 55.835938 C 8.898438 57.191406 10.988281 58.148438 12.941406 58.707031 " fill-opacity="1" fill-rule="nonzero"/></g></svg>