<svg xmlns="http://www.w3.org/2000/svg" xmlns:xlink="http://www.w3.org/1999/xlink" width="128" zoomAndPan="magnify" viewBox="0 0 96 95.999999" height="128" preserveAspectRatio="xMidYMid meet" version="1.0"><defs><clipPath id="37284552b7"><path d="M 16.054688 32.847656 L 45 32.847656 L 45 62.847656 L 16.054688 62.847656 Z M 16.054688 32.847656 " clip-rule="nonzero"/></clipPath><clipPath id="597f54c650"><path d="M 51.019531 32.847656 L 80 32.847656 L 80 62.847656 L 51.019531 62.847656 Z M 51.019531 32.847656 " clip-rule="nonzero"/></clipPath></defs><g clip-path="url(#37284552b7)"><path fill="#ffde59" d="M 24.382812 52.109375 L 24.363281 52.09375 L 20.128906 49.488281 L 18.789062 48.570312 C 17.917969 47.945312 17.476562 47.394531 17.460938 46.914062 C 17.742188 46.460938 18.4375 46.03125 19.554688 45.625 C 20.808594 45.140625 22.945312 44.539062 25.976562 43.828125 C 26.210938 43.765625 26.441406 43.632812 26.667969 43.429688 C 26.878906 43.207031 27.019531 42.96875 27.089844 42.722656 C 27.945312 39.527344 28.644531 37.289062 29.1875 36.007812 C 29.660156 34.847656 30.113281 34.199219 30.539062 34.0625 L 30.429688 34.066406 C 30.714844 34.148438 30.96875 34.347656 31.183594 34.667969 C 31.386719 34.914062 31.664062 35.378906 32.019531 36.0625 C 32.628906 37.226562 33.503906 39.394531 34.648438 42.570312 C 34.742188 42.8125 34.894531 43.035156 35.113281 43.242188 C 35.34375 43.425781 35.566406 43.542969 35.785156 43.585938 C 38.546875 44.082031 40.539062 44.53125 41.75 44.933594 C 42.75 45.238281 43.414062 45.625 43.746094 46.09375 C 43.785156 46.53125 43.496094 47.042969 42.878906 47.632812 C 42.136719 48.378906 40.707031 49.472656 38.59375 50.910156 C 38.378906 51.097656 38.242188 51.351562 38.1875 51.664062 C 38.152344 51.96875 38.183594 52.230469 38.28125 52.445312 C 39.542969 55.242188 40.351562 57.273438 40.703125 58.539062 C 41.023438 59.726562 41.097656 60.472656 40.929688 60.777344 C 40.882812 60.902344 40.796875 60.972656 40.671875 60.988281 C 40.519531 61.027344 40.320312 61.03125 40.066406 61 C 39.761719 60.984375 39.210938 60.84375 38.421875 60.574219 C 37.34375 60.21875 35.285156 59.257812 32.246094 57.683594 C 32.058594 57.59375 31.828125 57.542969 31.554688 57.535156 C 31.277344 57.546875 31.042969 57.601562 30.851562 57.695312 C 27.710938 59.34375 25.625 60.34375 24.597656 60.703125 C 24.015625 60.933594 23.4375 61.101562 22.871094 61.21875 L 22.363281 61.277344 C 22.15625 61.273438 22.019531 61.246094 21.960938 61.195312 L 21.988281 61.21875 C 21.707031 60.832031 21.722656 60.09375 22.039062 59.003906 L 22.558594 57.347656 C 23.777344 54.152344 24.40625 52.425781 24.449219 52.164062 C 21.53125 56.898438 20.335938 60.003906 20.867188 61.488281 C 21.28125 62.394531 22.226562 62.640625 23.703125 62.222656 C 25.703125 61.628906 28.304688 60.417969 31.511719 58.589844 C 35.261719 60.589844 37.8125 61.730469 39.164062 62.015625 C 40.738281 62.402344 41.699219 62.109375 42.050781 61.144531 C 42.34375 60.539062 42.214844 59.367188 41.667969 57.636719 C 41.308594 56.515625 40.679688 54.9375 39.777344 52.910156 C 39.398438 51.980469 39.179688 51.632812 39.128906 51.867188 C 39.109375 51.921875 39.164062 51.914062 39.292969 51.839844 L 41.859375 50.023438 C 42.84375 49.269531 43.5 48.707031 43.835938 48.332031 C 44.8125 47.300781 45.152344 46.425781 44.851562 45.710938 C 44.351562 44.320312 41.355469 43.25 35.859375 42.5 C 34.007812 37.144531 32.59375 34.109375 31.613281 33.402344 C 31.179688 33.035156 30.730469 32.878906 30.269531 32.9375 C 29.746094 33.035156 29.261719 33.429688 28.816406 34.121094 C 27.902344 35.609375 26.953125 38.457031 25.960938 42.664062 C 19.726562 43.984375 16.550781 45.28125 16.4375 46.558594 C 16.179688 47.433594 16.742188 48.328125 18.121094 49.238281 C 20.34375 50.59375 22.429688 51.550781 24.382812 52.109375 " fill-opacity="1" fill-rule="nonzero"/></g><g clip-path="url(#597f54c650)"><path fill="#ffde59" d="M 59.351562 52.109375 L 59.332031 52.09375 L 55.097656 49.488281 L 53.757812 48.570312 C 52.886719 47.945312 52.445312 47.394531 52.429688 46.914062 C 52.707031 46.460938 53.40625 46.03125 54.523438 45.625 C 55.773438 45.140625 57.914062 44.539062 60.941406 43.828125 C 61.175781 43.765625 61.410156 43.632812 61.636719 43.429688 C 61.84375 43.207031 61.984375 42.96875 62.058594 42.722656 C 62.914062 39.527344 63.609375 37.289062 64.152344 36.007812 C 64.628906 34.847656 65.078125 34.199219 65.507812 34.0625 L 65.394531 34.066406 C 65.683594 34.148438 65.933594 34.347656 66.148438 34.667969 C 66.351562 34.914062 66.632812 35.378906 66.988281 36.0625 C 67.59375 37.226562 68.46875 39.394531 69.613281 42.570312 C 69.707031 42.8125 69.863281 43.035156 70.082031 43.242188 C 70.3125 43.425781 70.535156 43.542969 70.753906 43.585938 C 73.515625 44.082031 75.503906 44.53125 76.71875 44.933594 C 77.71875 45.238281 78.382812 45.625 78.710938 46.09375 C 78.753906 46.53125 78.464844 47.042969 77.84375 47.632812 C 77.105469 48.378906 75.675781 49.472656 73.5625 50.910156 C 73.347656 51.097656 73.210938 51.351562 73.15625 51.664062 C 73.121094 51.96875 73.152344 52.230469 73.25 52.445312 C 74.507812 55.242188 75.316406 57.273438 75.671875 58.539062 C 75.988281 59.726562 76.0625 60.472656 75.898438 60.777344 C 75.851562 60.902344 75.765625 60.972656 75.636719 60.988281 C 75.488281 61.027344 75.285156 61.03125 75.03125 61 C 74.726562 60.984375 74.179688 60.84375 73.390625 60.574219 C 72.3125 60.21875 70.253906 59.257812 67.210938 57.683594 C 67.027344 57.59375 66.796875 57.542969 66.519531 57.535156 C 66.246094 57.546875 66.011719 57.601562 65.816406 57.695312 C 62.675781 59.34375 60.59375 60.34375 59.566406 60.703125 C 58.980469 60.933594 58.40625 61.101562 57.839844 61.21875 L 57.332031 61.277344 C 57.121094 61.273438 56.988281 61.246094 56.929688 61.195312 L 56.953125 61.21875 C 56.675781 60.832031 56.691406 60.09375 57.007812 59.003906 L 57.527344 57.347656 C 58.746094 54.152344 59.375 52.425781 59.414062 52.164062 C 56.5 56.898438 55.304688 60.003906 55.832031 61.488281 C 56.246094 62.394531 57.191406 62.640625 58.667969 62.222656 C 60.667969 61.628906 63.273438 60.417969 66.480469 58.589844 C 70.226562 60.589844 72.777344 61.730469 74.128906 62.015625 C 75.703125 62.402344 76.667969 62.109375 77.019531 61.144531 C 77.308594 60.539062 77.183594 59.367188 76.636719 57.636719 C 76.277344 56.515625 75.648438 54.9375 74.746094 52.910156 C 74.367188 51.980469 74.148438 51.632812 74.09375 51.867188 C 74.078125 51.921875 74.128906 51.914062 74.257812 51.839844 L 76.824219 50.023438 C 77.808594 49.269531 78.46875 48.707031 78.804688 48.332031 C 79.78125 47.300781 80.121094 46.425781 79.820312 45.710938 C 79.320312 44.320312 76.320312 43.25 70.828125 42.5 C 68.976562 37.144531 67.558594 34.109375 66.582031 33.402344 C 66.144531 33.035156 65.695312 32.878906 65.238281 32.9375 C 64.714844 33.035156 64.230469 33.429688 63.785156 34.121094 C 62.871094 35.609375 61.917969 38.457031 60.929688 42.664062 C 54.695312 43.984375 51.519531 45.28125 51.40625 46.558594 C 51.148438 47.433594 51.707031 48.328125 53.089844 49.238281 C 55.308594 50.59375 57.398438 51.550781 59.351562 52.109375 " fill-opacity="1" fill-rule="nonzero"/></g></svg>